<svg width="15" height="25" viewBox="0 0 15 25" fill="none" xmlns="http://www.w3.org/2000/svg">
<path d="M7.5 0C3.36444 0 0 3.29876 0 7.35359V17.6464C0 21.7012 3.36444 25 7.5 25C11.6356 25 15 21.7012 15 17.6464V7.35359C15 3.29876 11.6356 0 7.5 0ZM13.4702 17.6464C13.4702 20.874 10.7919 23.5001 7.5 23.5001C4.20812 23.5001 1.5298 20.874 1.5298 17.6464V7.35359C1.5298 4.12598 4.20812 1.49994 7.5 1.49994C10.7919 1.49994 13.4702 4.12598 13.4702 7.35359V17.6464Z" fill="url(#paint0_linear)"/>
<path d="M7.50025 4.97327C7.07773 4.97327 6.73535 5.30896 6.73535 5.72324V9.17516C6.73535 9.58924 7.07773 9.92513 7.50025 9.92513C7.92258 9.92513 8.26516 9.58924 8.26516 9.17516V5.72324C8.26516 5.30896 7.92278 4.97327 7.50025 4.97327Z" fill="url(#paint1_linear)"/>
<defs>
<linearGradient id="paint0_linear" x1="2.49658" y1="20.9341" x2="16.1192" y2="15.5734" gradientUnits="userSpaceOnUse">
<stop stop-color="#0084FF"/>
<stop offset="1" stop-color="#2BF6E7"/>
</linearGradient>
<linearGradient id="paint1_linear" x1="6.98997" y1="9.11977" x2="8.53118" y2="8.8075" gradientUnits="userSpaceOnUse">
<stop stop-color="#0084FF"/>
<stop offset="1" stop-color="#2BF6E7"/>
</linearGradient>
</defs>
</svg>
