<svg width="175" height="47" viewBox="0 0 175 47" fill="none" xmlns="http://www.w3.org/2000/svg">
<path d="M30.4874 32.6066C30.4874 31.4804 30.7325 30.4535 31.2228 29.5261C31.713 28.5986 32.4484 27.8036 33.4289 27.1411C34.4093 26.4654 35.6283 25.9486 37.0858 25.5909C38.5565 25.2199 40.2657 25.0344 42.2135 25.0344C43.6577 25.0344 45.1748 25.1404 46.7648 25.3524C48.368 25.5644 50.0176 25.889 51.7136 26.3262C51.6473 25.5842 51.4221 24.9019 51.0378 24.2791C50.6536 23.6432 50.117 23.0999 49.428 22.6494C48.7522 22.1857 47.9307 21.8279 46.9635 21.5762C46.0095 21.3244 44.923 21.1986 43.7041 21.1986C43.0416 21.1986 42.3128 21.2383 41.5179 21.3178C40.7229 21.3973 39.9014 21.5166 39.0534 21.6756C38.2054 21.8346 37.364 22.0333 36.5293 22.2718C35.7078 22.5103 34.9393 22.7952 34.2239 23.1264L32.4351 18.2969C33.3229 17.9789 34.2702 17.6874 35.2772 17.4224C36.2974 17.1574 37.3375 16.9321 38.3975 16.7466C39.4575 16.5479 40.5175 16.3955 41.5775 16.2895C42.6375 16.1835 43.6643 16.1305 44.658 16.1305C49.0437 16.1305 52.3032 17.2501 54.4364 19.4894C56.5696 21.7286 57.6362 25.1603 57.6362 29.7844V40H51.7533V37.7939C51.1438 38.1517 50.4747 38.4895 49.746 38.8075C49.0305 39.1255 48.2487 39.4038 47.4007 39.6423C46.5528 39.8808 45.6385 40.0662 44.658 40.1987C43.6908 40.3445 42.664 40.4174 41.5775 40.4174C39.749 40.4174 38.1392 40.2186 36.7479 39.8211C35.37 39.4236 34.2172 38.8738 33.2897 38.1715C32.3623 37.4693 31.66 36.6478 31.183 35.7071C30.7193 34.7531 30.4874 33.7196 30.4874 32.6066ZM36.6883 32.4079C36.6883 32.7921 36.7877 33.1631 36.9864 33.5209C37.1852 33.8654 37.5032 34.1767 37.9404 34.455C38.3777 34.72 38.9341 34.9386 39.6099 35.1108C40.2989 35.2698 41.127 35.3493 42.0942 35.3493C43.1277 35.3493 44.1281 35.2566 45.0953 35.0711C46.0625 34.8856 46.9635 34.6405 47.7982 34.3357C48.633 34.031 49.3882 33.6799 50.064 33.2824C50.7397 32.8849 51.3028 32.4741 51.7533 32.0501V31.0167C50.8523 30.7649 49.958 30.5529 49.0702 30.3807C48.1957 30.2084 47.3544 30.0759 46.5461 29.9832C45.7512 29.8772 44.9959 29.8043 44.2804 29.7646C43.5782 29.7248 42.9621 29.7049 42.4321 29.7049C41.3324 29.7049 40.4181 29.7778 39.6894 29.9235C38.9606 30.0693 38.371 30.268 37.9205 30.5198C37.47 30.7583 37.1521 31.0432 36.9666 31.3744C36.7811 31.7056 36.6883 32.0501 36.6883 32.4079Z" fill="white"/>
<path d="M60.3423 16.5479H66.2252V19.9266C67.5237 18.9594 68.8951 18.1246 70.3393 17.4224C71.7835 16.7202 73.2211 16.1835 74.6521 15.8125L76.3812 21.1986C74.1155 21.4238 72.1214 21.9339 70.3989 22.7289C68.6897 23.5107 67.2985 24.617 66.2252 26.048V40H60.3423V16.5479Z" fill="white"/>
<path d="M84.7428 20.9601H79.0785V16.5479H84.7428V9.2539H90.6257V16.5479H96.29V20.9601H90.6257V40H84.7428V20.9601Z" fill="white"/>
<path d="M98.9964 16.528H104.859V27.9758C104.859 29.0623 104.979 30.056 105.217 30.957C105.456 31.8448 105.86 32.6066 106.43 33.2426C107.013 33.8786 107.781 34.3755 108.735 34.7332C109.702 35.0777 110.901 35.25 112.332 35.25C113.008 35.25 113.69 35.1771 114.379 35.0313C115.082 34.8856 115.751 34.6868 116.387 34.4351C117.023 34.1701 117.612 33.8587 118.156 33.501C118.712 33.1432 119.189 32.7524 119.587 32.3284V16.528H125.469V40H119.587V37.9927C118.142 38.8539 116.691 39.47 115.234 39.841C113.777 40.212 112.392 40.3975 111.08 40.3975C108.934 40.3975 107.092 40.1391 105.555 39.6224C104.031 39.1056 102.779 38.357 101.799 37.3765C100.831 36.3828 100.123 35.1705 99.6721 33.7395C99.2216 32.2953 98.9964 30.6523 98.9964 28.8106V16.528Z" fill="white"/>
<path fill-rule="evenodd" clip-rule="evenodd" d="M0 34.089V40.0001H6.30027V27.7772H24.5452V22.5899H9.64883L0 34.089ZM16.4696 14.4612H27.7848V8.93604H21.1058L16.4696 14.4612Z" fill="white"/>
<path fill-rule="evenodd" clip-rule="evenodd" d="M170.579 18.7907C169.588 17.9841 168.432 17.3624 167.11 16.9254C165.546 16.3954 163.804 16.1304 161.882 16.1304C160.968 16.1304 160.08 16.1966 159.219 16.3291C158.358 16.4484 157.51 16.6537 156.675 16.9452C155.841 17.2235 155.006 17.5945 154.171 18.0582C153.336 18.5087 152.488 19.0652 151.627 19.7277C150.514 18.522 149.176 17.621 147.612 17.0247C146.049 16.4285 144.333 16.1304 142.465 16.1304C141.127 16.1304 139.755 16.3092 138.351 16.667C136.96 17.0115 135.529 17.6342 134.058 18.5352V16.5477H128.175V39.9998H134.058V24.1995C134.495 23.749 134.985 23.3449 135.529 22.9871C136.085 22.6294 136.675 22.3246 137.298 22.0729C137.934 21.8211 138.589 21.629 139.265 21.4965C139.954 21.3508 140.636 21.2779 141.312 21.2779C142.412 21.2779 143.419 21.4634 144.333 21.8344C145.261 22.1921 146.049 22.7221 146.698 23.4244C147.361 24.1134 147.871 24.968 148.229 25.9882C148.6 26.9952 148.785 28.1413 148.785 29.4265V39.9998H152.782L154.648 37.776V24.1597C155.032 23.6695 155.483 23.2455 156 22.8878C156.516 22.5168 157.066 22.212 157.649 21.9735C158.245 21.735 158.855 21.5628 159.478 21.4568C160.1 21.3375 160.71 21.2779 161.306 21.2779C162.393 21.2779 163.386 21.4634 164.287 21.8344C165.202 22.1921 165.983 22.7221 166.633 23.4244C166.643 23.4351 166.653 23.4459 166.663 23.4567L170.579 18.7907Z" fill="white"/>
</svg>
