<svg width="261" height="41" viewBox="0 0 261 41" fill="none" xmlns="http://www.w3.org/2000/svg">
<g clip-path="url(#clip0_115_665)">
<path d="M210.933 6.70996C203.759 6.70996 197.923 12.7451 197.923 20.1621C197.923 27.5791 203.759 33.6142 210.933 33.6142C214.886 33.6142 218.432 31.7802 220.821 28.8934C218.594 31.3011 215.459 32.8026 211.99 32.8026C205.249 32.8026 199.765 27.132 199.765 20.1621C199.765 13.1922 205.249 7.5215 211.99 7.5215C215.459 7.5215 218.595 9.02313 220.821 11.4308C218.434 8.54394 214.886 6.70996 210.933 6.70996Z" fill="url(#paint0_radial_115_665)"/>
<path d="M211.989 32.4756C205.423 32.4756 200.081 26.9517 200.081 20.1624C200.081 13.373 205.423 7.84912 211.989 7.84912C215.62 7.84912 218.875 9.538 221.062 12.1954C219.037 10.0172 216.191 8.65896 213.045 8.65896C206.91 8.65896 201.92 13.8201 201.92 20.1624C201.92 26.5063 206.911 31.6658 213.045 31.6658C216.191 31.6658 219.037 30.3075 221.062 28.1294C218.875 30.7867 215.62 32.4756 211.989 32.4756Z" fill="url(#paint1_radial_115_665)"/>
<path d="M213.046 8.98608C207.087 8.98608 202.237 14.0005 202.237 20.1622C202.237 26.3239 207.085 31.3383 213.046 31.3383C216.355 31.3383 219.32 29.7928 221.304 27.3632C219.482 29.3136 216.926 30.5267 214.104 30.5267C208.577 30.5267 204.08 25.8768 204.08 20.1622C204.08 14.4476 208.577 9.79768 214.104 9.79768C216.928 9.79768 219.482 11.0125 221.306 12.9612C219.32 10.5316 216.355 8.98608 213.046 8.98608Z" fill="url(#paint2_radial_115_665)"/>
<path d="M214.104 10.1248C208.751 10.1248 204.396 14.628 204.396 20.162C204.396 25.696 208.751 30.1992 214.104 30.1992C217.098 30.1992 219.779 28.7904 221.562 26.5802C219.939 28.3095 217.671 29.3877 215.161 29.3877C210.241 29.3877 206.237 25.2489 206.237 20.1603C206.237 15.0733 210.24 10.9329 215.161 10.9329C217.671 10.9329 219.94 12.0111 221.562 13.7405C219.779 11.5336 217.096 10.1248 214.104 10.1248Z" fill="url(#paint3_radial_115_665)"/>
<path d="M210.866 20.1621C210.866 23.8149 213.74 26.7861 217.272 26.7861C219.288 26.7861 221.086 25.8193 222.262 24.3109C221.247 25.3401 219.859 25.9762 218.33 25.9762C215.23 25.9762 212.709 23.3695 212.709 20.1638C212.709 16.9581 215.23 14.3513 218.33 14.3513C219.861 14.3513 221.247 14.9874 222.262 16.0166C221.088 14.5082 219.288 13.5398 217.272 13.5398C213.74 13.5381 210.866 16.5093 210.866 20.1621Z" fill="url(#paint4_radial_115_665)"/>
<path fill-rule="evenodd" clip-rule="evenodd" d="M218.328 14.6768C221.258 14.6768 223.633 17.1326 223.633 20.1619C223.633 23.1913 221.258 25.647 218.328 25.647C215.399 25.647 213.023 23.1913 213.023 20.1619C213.023 17.1326 215.399 14.6768 218.328 14.6768ZM218.837 22.7746C217.442 22.7746 216.31 21.6049 216.31 20.1619C216.31 18.7189 217.442 17.5492 218.837 17.5492C220.233 17.5492 221.364 18.7189 221.364 20.1619C221.364 21.6049 220.233 22.7746 218.837 22.7746Z" fill="url(#paint5_radial_115_665)"/>
<path d="M206.552 20.1622C206.552 25.0703 210.412 29.0623 215.159 29.0623C217.827 29.0623 220.214 27.8003 221.794 25.8245C220.374 27.3211 218.398 28.2507 216.215 28.2507C211.902 28.2507 208.392 24.6215 208.392 20.1622C208.392 15.703 211.902 12.0737 216.215 12.0737C218.398 12.0737 220.374 13.0034 221.794 14.5C220.214 12.5242 217.825 11.2622 215.157 11.2622C210.412 11.2622 206.552 15.2559 206.552 20.1622Z" fill="url(#paint6_radial_115_665)"/>
<path d="M216.216 27.9234C212.077 27.9234 208.71 24.4427 208.71 20.1623C208.71 15.8835 212.077 12.4011 216.216 12.3977C218.553 12.3977 220.644 13.5079 222.021 15.2457C220.804 13.9887 219.124 13.2093 217.271 13.2093C213.564 13.2093 210.549 16.3273 210.549 20.1606C210.549 23.9939 213.564 27.1119 217.271 27.1119C219.125 27.1119 220.804 26.3324 222.021 25.0754C220.644 26.8132 218.553 27.9234 216.216 27.9234Z" fill="url(#paint7_radial_115_665)"/>
<path d="M209.877 5.573C202.097 5.573 195.768 12.1177 195.768 20.1623C195.768 28.2069 202.097 34.7516 209.877 34.7516C214.154 34.7516 217.992 32.7742 220.582 29.6562C218.152 32.2933 214.725 33.9401 210.933 33.94C203.585 33.94 197.607 27.7581 197.607 20.1606C197.607 12.5631 203.585 6.38117 210.933 6.38117C214.725 6.38117 218.152 8.0279 220.582 10.665C217.992 7.55041 214.154 5.573 209.877 5.573Z" fill="url(#paint8_radial_115_665)"/>
<path d="M206.708 38.1664C197.107 38.1664 189.296 30.0897 189.296 20.1622C189.296 10.2347 197.107 2.15798 206.708 2.15967C211.966 2.15967 216.688 4.5825 219.883 8.40574C216.848 5.06335 212.539 2.97121 207.764 2.97121C198.595 2.97121 191.136 10.6835 191.136 20.1639C191.136 29.6443 198.595 37.3565 207.764 37.3565C212.539 37.3565 216.848 35.2644 219.883 31.922C216.688 35.7436 211.966 38.1664 206.708 38.1664Z" fill="url(#paint9_radial_115_665)"/>
<path d="M207.764 3.29688C198.77 3.29688 191.453 10.8623 191.453 20.1622C191.453 29.4621 198.77 37.0293 207.764 37.0293C212.695 37.0293 217.123 34.7549 220.116 31.1662C217.284 34.274 213.268 36.2177 208.82 36.2177C200.258 36.2177 193.292 29.015 193.292 20.1622C193.292 11.3094 200.258 4.10673 208.82 4.10673C213.266 4.10673 217.282 6.0504 220.115 9.15826C217.123 5.57124 212.695 3.29688 207.764 3.29688Z" fill="url(#paint10_radial_115_665)"/>
<path d="M193.609 20.1623C193.609 11.49 200.434 4.43408 208.821 4.43408C213.424 4.43408 217.557 6.55998 220.349 9.91243C217.718 7.04082 213.996 5.24562 209.878 5.24562C201.923 5.24562 195.452 11.9371 195.452 20.1623C195.452 28.3874 201.923 35.0789 209.878 35.0789C213.996 35.0789 217.718 33.2853 220.349 30.412C217.557 33.7645 213.424 35.8904 208.821 35.8904C200.434 35.8904 193.609 28.8345 193.609 20.1623Z" fill="url(#paint11_radial_115_665)"/>
<path fill-rule="evenodd" clip-rule="evenodd" d="M206.708 40.1927C196.009 40.1927 187.336 31.2252 187.336 20.1621C187.336 9.09913 196.009 0.131581 206.708 0.131592C217.407 0.131592 226.08 9.09913 226.08 20.1621C226.08 31.2252 217.407 40.1927 206.708 40.1927ZM206.708 38.4937C216.484 38.4937 224.437 30.2702 224.437 20.1621C224.437 10.0541 216.484 1.83061 206.708 1.83061C196.932 1.83061 188.979 10.0541 188.979 20.1621C188.979 30.2702 196.932 38.4937 206.708 38.4937Z" fill="url(#paint12_radial_115_665)"/>
<path d="M220.185 19.988C219.72 19.988 219.343 19.5981 219.343 19.1172C219.343 19.0626 219.348 19.0093 219.357 18.9575C218.965 19.0325 218.669 19.3874 218.669 19.8138C218.669 20.2948 219.046 20.6848 219.511 20.6848C219.924 20.6848 220.267 20.3782 220.339 19.9734C220.289 19.983 220.238 19.988 220.185 19.988Z" fill="url(#paint13_radial_115_665)"/>
<path d="M23.1819 30.8011C21.9515 31.8816 20.5735 32.7109 19.0479 33.2889C17.5223 33.8669 15.9414 34.1559 14.305 34.1559C13.05 34.1559 11.8381 33.9862 10.6694 33.647C9.51285 33.3203 8.42398 32.8554 7.4028 32.2523C6.39389 31.6366 5.47116 30.9016 4.63453 30.0472C3.7979 29.1928 3.07816 28.2505 2.47529 27.2201C1.88473 26.1773 1.42335 25.0653 1.09116 23.8842C0.771272 22.6905 0.611328 21.4529 0.611328 20.1714C0.611328 18.8897 0.771272 17.6521 1.09116 16.4585C1.42335 15.2648 1.88473 14.1529 2.47529 13.1225C3.07816 12.0797 3.7979 11.131 4.63453 10.2766C5.47116 9.42225 6.39389 8.69346 7.4028 8.09035C8.42398 7.47467 9.51285 7.00354 10.6694 6.67685C11.8381 6.3376 13.05 6.16797 14.305 6.16797C15.9414 6.16797 17.5223 6.45696 19.0479 7.03493C20.5735 7.60034 21.9515 8.42961 23.1819 9.52273L20.3767 14.2345C19.6016 13.3801 18.685 12.7267 17.6269 12.2744C16.5688 11.8095 15.4615 11.5771 14.305 11.5771C13.1362 11.5771 12.0412 11.8032 11.02 12.2556C9.99882 12.7079 9.10679 13.3236 8.34401 14.1026C7.58118 14.869 6.97834 15.78 6.53541 16.8354C6.09249 17.8783 5.87102 18.9903 5.87102 20.1714C5.87102 21.3524 6.09249 22.4644 6.53541 23.5073C6.97834 24.5376 7.58118 25.4422 8.34401 26.2212C9.10679 27.0002 9.99882 27.6159 11.02 28.0683C12.0412 28.5206 13.1362 28.7467 14.305 28.7467C15.4615 28.7467 16.5688 28.5206 17.6269 28.0683C18.685 27.6033 19.6016 26.9437 20.3767 26.0893L23.1819 30.8011Z" fill="white"/>
<path d="M45.5457 11.954V22.7722H50.8423C51.5682 22.7722 52.251 22.634 52.8907 22.3576C53.5306 22.0686 54.0904 21.6791 54.5702 21.1891C55.0502 20.6991 55.4253 20.1273 55.6959 19.474C55.979 18.8081 56.1205 18.1044 56.1205 17.3631C56.1205 16.6218 55.979 15.9245 55.6959 15.2711C55.4253 14.6052 55.0502 14.0272 54.5702 13.5372C54.0904 13.0472 53.5306 12.6639 52.8907 12.3875C52.251 12.0985 51.5682 11.954 50.8423 11.954H45.5457ZM45.5457 33.5716H40.249V6.54492H50.8423C51.8142 6.54492 52.7493 6.67685 53.6474 6.9407C54.5454 7.19199 55.3822 7.55638 56.1571 8.03382C56.9449 8.4987 57.6584 9.06411 58.2982 9.73005C58.9504 10.3834 59.5036 11.1122 59.9589 11.9163C60.4265 12.7205 60.7832 13.5811 61.0297 14.4984C61.288 15.4156 61.4171 16.3705 61.4171 17.3631C61.4171 18.2929 61.3004 19.1976 61.0663 20.0771C60.8451 20.9566 60.519 21.7922 60.088 22.5837C59.6699 23.3754 59.1533 24.1041 58.5382 24.77C57.9226 25.4359 57.2339 26.0139 56.4708 26.504L59.4051 33.5716H53.7766L51.4697 28.1248L45.5457 28.1625V33.5716Z" fill="white"/>
<path d="M90.7923 33.5716H85.514V25.1093C84.3452 24.8077 83.2684 24.324 82.2842 23.658C81.3124 22.9921 80.4756 22.2005 79.7745 21.2833C79.0733 20.3535 78.5255 19.3295 78.1321 18.2113C77.7506 17.0804 77.5596 15.893 77.5596 14.6491V6.54492H82.8562V14.6491C82.8562 15.3905 82.9918 16.0941 83.2625 16.76C83.5455 17.4134 83.9265 17.9851 84.4065 18.4751C84.8865 18.9651 85.4462 19.3547 86.086 19.6436C86.7382 19.9201 87.427 20.0582 88.1529 20.0582C88.8788 20.0582 89.5617 19.9201 90.2015 19.6436C90.8537 19.3547 91.4198 18.9651 91.8992 18.4751C92.3792 17.9851 92.7543 17.4134 93.0249 16.76C93.308 16.0941 93.4495 15.3905 93.4495 14.6491V6.54492H98.7279V14.6491C98.7279 15.893 98.5309 17.0804 98.137 18.2113C97.756 19.3295 97.2147 20.3535 96.513 21.2833C95.8118 22.2005 94.9751 22.9921 94.0032 23.658C93.0314 24.324 91.9611 24.8077 90.7923 25.1093V33.5716Z" fill="white"/>
<path d="M121.608 11.954V22.7722H126.904C127.63 22.7722 128.313 22.634 128.953 22.3576C129.593 22.0686 130.152 21.6791 130.632 21.1891C131.112 20.6991 131.487 20.1273 131.758 19.474C132.041 18.8081 132.183 18.1044 132.183 17.3631C132.183 16.6218 132.041 15.9245 131.758 15.2711C131.487 14.6052 131.112 14.0272 130.632 13.5372C130.152 13.0472 129.593 12.6639 128.953 12.3875C128.313 12.0985 127.63 11.954 126.904 11.954H121.608ZM121.608 33.5716H116.312V6.54492H126.904C127.877 6.54492 128.811 6.67685 129.709 6.9407C130.608 7.19199 131.444 7.55638 132.22 8.03382C133.007 8.4987 133.721 9.06411 134.36 9.73005C135.013 10.3834 135.566 11.1122 136.022 11.9163C136.489 12.7205 136.845 13.5811 137.092 14.4984C137.35 15.4156 137.479 16.3705 137.479 17.3631C137.479 18.8458 137.202 20.2467 136.649 21.566C136.095 22.8727 135.339 24.0161 134.379 24.9962C133.419 25.9762 132.293 26.7489 131.001 27.3144C129.722 27.8798 128.356 28.1625 126.904 28.1625H121.608V33.5716Z" fill="white"/>
<path d="M165.471 33.5716H160.193V11.954H152.238V6.54492H173.407V11.954H165.471V33.5716Z" fill="white"/>
<path d="M260.52 33.5716H254.854L244.649 15.78V33.5716H239.353V6.54492H245.018L255.224 24.3554V6.54492H260.52V33.5716Z" fill="white"/>
</g>
<defs>
<radialGradient id="paint0_radial_115_665" cx="0" cy="0" r="1" gradientUnits="userSpaceOnUse" gradientTransform="translate(200.68 40.1926) rotate(-63.948) scale(50.6977 49.685)">
<stop stop-color="#FF2A83"/>
<stop offset="0.340713" stop-color="#94C464"/>
<stop offset="0.752265" stop-color="#45B5AE"/>
<stop offset="1" stop-color="#F2F2F2"/>
</radialGradient>
<radialGradient id="paint1_radial_115_665" cx="0" cy="0" r="1" gradientUnits="userSpaceOnUse" gradientTransform="translate(200.681 40.1929) rotate(-63.9479) scale(50.6977 49.685)">
<stop stop-color="#FF2A83"/>
<stop offset="0.340713" stop-color="#94C464"/>
<stop offset="0.752265" stop-color="#45B5AE"/>
<stop offset="1" stop-color="#F2F2F2"/>
</radialGradient>
<radialGradient id="paint2_radial_115_665" cx="0" cy="0" r="1" gradientUnits="userSpaceOnUse" gradientTransform="translate(200.68 40.1927) rotate(-63.9479) scale(50.6978 49.685)">
<stop stop-color="#FF2A83"/>
<stop offset="0.340713" stop-color="#94C464"/>
<stop offset="0.752265" stop-color="#45B5AE"/>
<stop offset="1" stop-color="#F2F2F2"/>
</radialGradient>
<radialGradient id="paint3_radial_115_665" cx="0" cy="0" r="1" gradientUnits="userSpaceOnUse" gradientTransform="translate(200.68 40.1925) rotate(-63.9479) scale(50.6977 49.685)">
<stop stop-color="#FF2A83"/>
<stop offset="0.340713" stop-color="#94C464"/>
<stop offset="0.752265" stop-color="#45B5AE"/>
<stop offset="1" stop-color="#F2F2F2"/>
</radialGradient>
<radialGradient id="paint4_radial_115_665" cx="0" cy="0" r="1" gradientUnits="userSpaceOnUse" gradientTransform="translate(200.68 40.1926) rotate(-63.948) scale(50.6977 49.6849)">
<stop stop-color="#FF2A83"/>
<stop offset="0.340713" stop-color="#94C464"/>
<stop offset="0.752265" stop-color="#45B5AE"/>
<stop offset="1" stop-color="#F2F2F2"/>
</radialGradient>
<radialGradient id="paint5_radial_115_665" cx="0" cy="0" r="1" gradientUnits="userSpaceOnUse" gradientTransform="translate(200.68 40.1924) rotate(-63.9479) scale(50.6978 49.6851)">
<stop stop-color="#FF2A83"/>
<stop offset="0.340713" stop-color="#94C464"/>
<stop offset="0.752265" stop-color="#45B5AE"/>
<stop offset="1" stop-color="#F2F2F2"/>
</radialGradient>
<radialGradient id="paint6_radial_115_665" cx="0" cy="0" r="1" gradientUnits="userSpaceOnUse" gradientTransform="translate(200.68 40.1928) rotate(-63.9479) scale(50.6977 49.685)">
<stop stop-color="#FF2A83"/>
<stop offset="0.340713" stop-color="#94C464"/>
<stop offset="0.752265" stop-color="#45B5AE"/>
<stop offset="1" stop-color="#F2F2F2"/>
</radialGradient>
<radialGradient id="paint7_radial_115_665" cx="0" cy="0" r="1" gradientUnits="userSpaceOnUse" gradientTransform="translate(200.681 40.1928) rotate(-63.9479) scale(50.6977 49.685)">
<stop stop-color="#FF2A83"/>
<stop offset="0.340713" stop-color="#94C464"/>
<stop offset="0.752265" stop-color="#45B5AE"/>
<stop offset="1" stop-color="#F2F2F2"/>
</radialGradient>
<radialGradient id="paint8_radial_115_665" cx="0" cy="0" r="1" gradientUnits="userSpaceOnUse" gradientTransform="translate(200.68 40.1928) rotate(-63.9479) scale(50.6977 49.6851)">
<stop stop-color="#FF2A83"/>
<stop offset="0.340713" stop-color="#94C464"/>
<stop offset="0.752265" stop-color="#45B5AE"/>
<stop offset="1" stop-color="#F2F2F2"/>
</radialGradient>
<radialGradient id="paint9_radial_115_665" cx="0" cy="0" r="1" gradientUnits="userSpaceOnUse" gradientTransform="translate(200.68 40.1927) rotate(-63.9479) scale(50.6977 49.685)">
<stop stop-color="#FF2A83"/>
<stop offset="0.340713" stop-color="#94C464"/>
<stop offset="0.752265" stop-color="#45B5AE"/>
<stop offset="1" stop-color="#F2F2F2"/>
</radialGradient>
<radialGradient id="paint10_radial_115_665" cx="0" cy="0" r="1" gradientUnits="userSpaceOnUse" gradientTransform="translate(200.68 40.1928) rotate(-63.9479) scale(50.6977 49.685)">
<stop stop-color="#FF2A83"/>
<stop offset="0.340713" stop-color="#94C464"/>
<stop offset="0.752265" stop-color="#45B5AE"/>
<stop offset="1" stop-color="#F2F2F2"/>
</radialGradient>
<radialGradient id="paint11_radial_115_665" cx="0" cy="0" r="1" gradientUnits="userSpaceOnUse" gradientTransform="translate(200.679 40.1928) rotate(-63.9479) scale(50.6978 49.6851)">
<stop stop-color="#FF2A83"/>
<stop offset="0.340713" stop-color="#94C464"/>
<stop offset="0.752265" stop-color="#45B5AE"/>
<stop offset="1" stop-color="#F2F2F2"/>
</radialGradient>
<radialGradient id="paint12_radial_115_665" cx="0" cy="0" r="1" gradientUnits="userSpaceOnUse" gradientTransform="translate(200.68 40.1927) rotate(-63.9479) scale(50.6977 49.685)">
<stop stop-color="#FF2A83"/>
<stop offset="0.340713" stop-color="#94C464"/>
<stop offset="0.752265" stop-color="#45B5AE"/>
<stop offset="1" stop-color="#F2F2F2"/>
</radialGradient>
<radialGradient id="paint13_radial_115_665" cx="0" cy="0" r="1" gradientUnits="userSpaceOnUse" gradientTransform="translate(200.68 40.1928) rotate(-63.948) scale(50.6977 49.6849)">
<stop stop-color="#FF2A83"/>
<stop offset="0.340713" stop-color="#94C464"/>
<stop offset="0.752265" stop-color="#45B5AE"/>
<stop offset="1" stop-color="#F2F2F2"/>
</radialGradient>
<clipPath id="clip0_115_665">
<rect width="259.909" height="40.0611" fill="white" transform="translate(0.611328 0.131592)"/>
</clipPath>
</defs>
</svg>
