<svg width="226" height="61" viewBox="0 0 226 61" fill="none" xmlns="http://www.w3.org/2000/svg">
<path d="M10.9639 12.1562L23.6628 6.15439L36.3617 0.152588V60.4414H10.9639V12.1562Z" fill="#29AEE4"/>
<path d="M4.16797 26.7703L25.2732 17.2288V56.9566H4.16797V26.7703Z" fill="#149FDC"/>
<path d="M0.948242 36.3956L16.6878 28.3804V55.2141H0.948242V36.3956Z" fill="#89CFEE"/>
<path d="M53.6807 48.6977V25.2177H56.6297V28.2701C57.3505 27.237 58.268 26.4073 59.3821 25.7812C60.5289 25.1238 61.7085 24.795 62.9209 24.795C65.9682 24.795 68.18 26.0473 69.5562 28.5518C71.5222 26.0473 73.8323 24.795 76.4864 24.795C78.2558 24.795 79.7139 25.0612 80.8608 25.5934C82.0404 26.1256 82.8923 26.8926 83.4166 27.8944C83.9736 28.8649 84.334 29.8354 84.4979 30.8059C84.6945 31.7451 84.7928 32.8722 84.7928 34.187V48.6977H81.8438V34.187C81.8438 33.3105 81.7782 32.5434 81.6472 31.886C81.5161 31.1973 81.2703 30.5085 80.9099 29.8198C80.5495 29.131 79.9761 28.5988 79.1896 28.2231C78.436 27.8474 77.4858 27.6596 76.3389 27.6596C75.1593 27.6596 74.0453 28.0822 72.9967 28.9275C71.9809 29.7728 71.1945 30.759 70.6375 31.886C70.7686 32.8252 70.8341 33.5922 70.8341 34.187V48.6977H67.8359V34.187C67.8359 33.2478 67.754 32.4495 67.5902 31.7921C66.9349 29.0371 65.2474 27.6596 62.5277 27.6596C61.217 27.6596 60.0047 28.1292 58.8906 29.0684C57.8093 29.9763 57.0556 31.0094 56.6297 32.1678V48.6977H53.6807Z" fill="white"/>
<path d="M91.3835 29.3032C91.2852 29.1154 91.0722 28.7084 90.7446 28.0822C90.4497 27.4248 90.2694 27.0178 90.2039 26.8613C93.6772 25.4838 96.7081 24.795 99.2967 24.795C101.853 24.795 103.835 25.4681 105.244 26.8143C106.686 28.1292 107.407 30.0702 107.407 32.6374V48.6977H104.752C104.72 48.2281 104.638 47.4924 104.507 46.4906C103.786 47.3985 102.819 48.1029 101.607 48.6038C100.394 49.0734 99.1656 49.3082 97.9205 49.3082C95.3319 49.3082 93.3495 48.6664 91.9733 47.3828C90.6299 46.0992 89.9582 44.3617 89.9582 42.1702C89.9582 39.1961 91.0231 37.1768 93.1529 36.1124C95.2828 35.0167 99.051 34.4688 104.457 34.4688V32.4495C104.457 30.8842 103.982 29.6789 103.032 28.8336C102.115 27.957 100.87 27.5187 99.2967 27.5187C97.1341 27.5187 94.4964 28.1136 91.3835 29.3032ZM104.457 43.2973V36.9107C100.001 36.9107 96.9539 37.2864 95.3155 38.0378C93.6772 38.7891 92.858 40.1823 92.858 42.2172C92.858 43.5321 93.3331 44.5809 94.2834 45.3635C95.2336 46.1462 96.5771 46.5375 98.3137 46.5375C99.6571 46.5375 100.87 46.2401 101.951 45.6453C103.065 45.0505 103.9 44.2678 104.457 43.2973Z" fill="white"/>
<path d="M116.939 20.3808H113.4V16.1074H116.939V20.3808ZM109.616 55.1312L108.878 52.3606C110.615 51.9536 111.844 51.3588 112.565 50.5761C113.318 49.8247 113.695 48.7916 113.695 47.4767V25.2177H116.644V47.4767C116.644 49.5743 116.103 51.2179 115.022 52.4075C113.941 53.5972 112.139 54.5051 109.616 55.1312Z" fill="white"/>
<path d="M122.966 29.3032C122.868 29.1154 122.655 28.7084 122.327 28.0822C122.033 27.4248 121.852 27.0178 121.787 26.8613C125.26 25.4838 128.291 24.795 130.88 24.795C133.435 24.795 135.418 25.4681 136.827 26.8143C138.269 28.1292 138.989 30.0702 138.989 32.6374V48.6977H136.335C136.302 48.2281 136.221 47.4924 136.09 46.4906C135.369 47.3985 134.402 48.1029 133.19 48.6038C131.977 49.0734 130.749 49.3082 129.503 49.3082C126.915 49.3082 124.932 48.6664 123.556 47.3828C122.213 46.0992 121.541 44.3617 121.541 42.1702C121.541 39.1961 122.606 37.1768 124.736 36.1124C126.866 35.0167 130.634 34.4688 136.04 34.4688V32.4495C136.04 30.8842 135.565 29.6789 134.615 28.8336C133.698 27.957 132.452 27.5187 130.88 27.5187C128.717 27.5187 126.079 28.1136 122.966 29.3032ZM136.04 43.2973V36.9107C131.584 36.9107 128.537 37.2864 126.898 38.0378C125.26 38.7891 124.441 40.1823 124.441 42.2172C124.441 43.5321 124.916 44.5809 125.866 45.3635C126.816 46.1462 128.16 46.5375 129.897 46.5375C131.24 46.5375 132.452 46.2401 133.534 45.6453C134.648 45.0505 135.483 44.2678 136.04 43.2973Z" fill="white"/>
<path d="M144.493 15.8257H147.492V48.6977H144.493V15.8257Z" fill="white"/>
<path d="M152.509 48.6977V45.3635H156.048V48.6977H152.509Z" fill="white"/>
<path d="M182.076 36.8638C182.076 45.0661 178.62 49.1673 171.706 49.1673C168.003 49.1673 165.316 48.0559 163.645 45.8331C162.007 43.579 161.188 40.5893 161.188 36.8638C161.188 35.1732 161.368 33.6392 161.728 32.2617C162.089 30.8529 162.662 29.585 163.449 28.4579C164.235 27.2996 165.333 26.4073 166.742 25.7812C168.151 25.1238 169.805 24.795 171.706 24.795C178.62 24.795 182.076 28.818 182.076 36.8638ZM178.882 36.8638C178.882 30.7277 176.49 27.6596 171.706 27.6596C166.824 27.6596 164.382 30.7277 164.382 36.8638C164.382 43.1877 166.824 46.3497 171.706 46.3497C176.49 46.3497 178.882 43.1877 178.882 36.8638Z" fill="white"/>
<path d="M199.94 28.9275C198.891 28.0822 197.629 27.6596 196.155 27.6596C194.713 27.6596 193.435 28.1762 192.321 29.2093C191.24 30.2424 190.552 31.2442 190.257 32.2147V48.6977H187.308V25.2177H190.257V28.0822C190.945 27.1744 191.83 26.4073 192.911 25.7812C194.025 25.1238 195.205 24.795 196.45 24.795C198.35 24.795 199.956 25.2177 201.267 26.063C201.168 26.2195 200.939 26.7048 200.578 27.5187C200.218 28.3014 200.005 28.771 199.94 28.9275Z" fill="white"/>
<path d="M209.654 40.9023C208.934 41.4972 208.573 42.1546 208.573 42.8746C208.573 43.5947 209.048 44.1426 209.998 44.5182C210.949 44.8626 212.636 45.16 215.061 45.4105C221.876 46.0992 225.284 48.0402 225.284 51.2335C225.284 53.3624 224.285 54.959 222.286 56.0234C220.287 57.0879 217.731 57.6201 214.619 57.6201C207.475 57.6201 203.904 55.5382 203.904 51.3744C203.904 50.2161 204.395 49.2142 205.378 48.369C206.394 47.5237 207.508 46.9289 208.721 46.5845C207.672 46.1775 206.951 45.6922 206.558 45.1287C206.165 44.5652 205.968 43.8452 205.968 42.9686C205.968 41.8102 206.591 40.6988 207.836 39.6344C206.165 37.9752 205.329 35.862 205.329 33.2948C205.329 30.9155 206.05 28.8806 207.492 27.19C208.966 25.4994 211.26 24.6542 214.373 24.6542C216.601 24.6542 218.469 25.1707 219.976 26.2038L220.959 25.2177H225.137L221.942 28.2231C222.859 29.7572 223.318 31.4008 223.318 33.1539C223.318 35.7524 222.597 37.8656 221.156 39.4935C219.714 41.1215 217.453 41.9354 214.373 41.9354C212.505 41.9354 210.932 41.5911 209.654 40.9023ZM220.222 33.1539C220.222 31.3068 219.714 29.8824 218.698 28.8806C217.682 27.8788 216.241 27.3778 214.373 27.3778C212.309 27.3778 210.801 27.957 209.851 29.1154C208.934 30.2737 208.475 31.6669 208.475 33.2948C208.475 35.048 208.95 36.4724 209.9 37.5682C210.883 38.6639 212.39 39.2118 214.422 39.2118C216.421 39.2118 217.879 38.6639 218.796 37.5682C219.747 36.4411 220.222 34.9697 220.222 33.1539ZM214.864 48.0402C211.981 48.0402 209.9 48.3846 208.622 49.0734C207.377 49.7934 206.755 50.6074 206.755 51.5153C206.755 54.0824 209.359 55.366 214.569 55.366C216.896 55.366 218.747 55.006 220.123 54.2859C221.532 53.5659 222.237 52.5954 222.237 51.3744C222.237 50.4039 221.598 49.6056 220.32 48.9794C219.075 48.3533 217.256 48.0402 214.864 48.0402Z" fill="white"/>
</svg>
