<svg width="241" height="67" viewBox="0 0 241 67" fill="none" xmlns="http://www.w3.org/2000/svg">
<path d="M108.101 52.9184V46.9087H96.7369V41.5H105.369V35.4903H96.7369V30.2819H107.546V24.2722H89.8079V52.9184H108.101Z" fill="white"/>
<path d="M110.445 47.109C110.445 48.9119 111.079 50.3943 112.306 51.5962C113.534 52.7982 115.157 53.3991 117.097 53.3991C119.473 53.3991 121.849 52.2773 123.155 50.3943H123.234L123.155 51.6764V52.9184H129.411V40.2179C129.411 34.9694 125.967 31.8044 120.304 31.8044C118.721 31.8044 117.097 32.0848 115.474 32.6056C113.851 33.1265 112.583 33.7675 111.673 34.4887L114.049 39.3765C115.989 38.0544 117.889 37.4134 119.671 37.4134C121.611 37.4134 122.561 38.1746 122.561 39.6971V40.0576H121.967C119.235 40.0576 116.701 40.4984 114.326 41.5C111.99 42.5016 110.445 44.5048 110.445 47.109ZM117.216 46.468C117.216 44.7452 119.473 44.024 122.007 44.024H122.641V44.5849C122.641 45.4664 122.284 46.3077 121.611 47.0689C120.938 47.8302 120.106 48.2308 119.156 48.2308C117.929 48.2308 117.216 47.4696 117.216 46.468Z" fill="white"/>
<path d="M140.606 52.9184V44.9055C140.606 41.0192 142.546 38.6954 146.229 38.6954C146.902 38.6954 147.377 38.7355 147.614 38.8156V32.0047C147.298 31.9646 147.02 31.9245 146.822 31.9245C143.853 31.9245 141.24 34.1682 140.329 37.0528H140.25L140.329 35.7707V32.2851H133.756V52.9184H140.606Z" fill="white"/>
<path d="M157.465 52.9184V43.5833C157.465 40.4182 159.009 38.0945 161.899 38.0945C163.404 38.0945 164.156 39.016 164.156 40.8189V52.9184H171.006V39.5368C171.006 34.3685 168.551 31.8044 163.681 31.8044C160.751 31.8044 158.573 33.0063 157.188 35.3701H157.108L157.188 34.088V32.2851H150.615V52.9184H157.465Z" fill="white"/>
<path d="M188.432 52.9184L195.361 32.2851H188.115L184.987 43.2628C184.71 44.1843 184.472 45.3462 184.235 46.8286H184.155L183.403 43.2628L180.235 32.2851H173.029L180.077 52.9184H188.432Z" fill="white"/>
<path d="M196.292 42.5817C196.292 45.5064 197.282 48.0706 199.301 50.194C201.321 52.3174 204.053 53.3991 207.497 53.3991C210.665 53.3991 214.03 52.2773 216.208 50.3943L213.674 45.5465C211.615 46.9487 209.754 47.6298 208.052 47.6298C205.716 47.6298 203.775 46.3478 203.3 43.9439H216.169C216.287 42.9824 216.327 42.2612 216.327 41.7804C216.327 38.8557 215.495 36.4518 213.793 34.6089C212.13 32.7258 209.833 31.8044 206.903 31.8044C203.696 31.8044 201.123 32.846 199.182 34.8893C197.242 36.9326 196.292 39.4967 196.292 42.5817ZM203.459 39.9775C203.894 37.9342 205.003 36.8925 206.745 36.8925C208.448 36.8925 209.556 38.2147 209.556 39.9775H203.459Z" fill="white"/>
<path d="M226.756 52.9184V43.5833C226.756 40.4182 228.3 38.0945 231.19 38.0945C232.695 38.0945 233.447 39.016 233.447 40.8189V52.9184H240.297V39.5368C240.297 34.3685 237.842 31.8044 232.972 31.8044C230.042 31.8044 227.864 33.0063 226.478 35.3701H226.399L226.478 34.088V32.2851H219.906V52.9184H226.756Z" fill="white"/>
<g filter="url(#filter0_i_12_1689)">
<path fill-rule="evenodd" clip-rule="evenodd" d="M37.3631 15.8628L28.5826 10.9848L37.5701 0L74.514 45.919L37.5701 67L0 45.919L4.3883 40.5555L37.5718 59.0684V50.0933L9.39312 34.4385L13.9376 28.8842L37.3631 41.9532V32.9781L18.9552 22.7515L23.5523 17.1329L37.3631 24.8379V15.8628ZM46.963 25.6731V51.9722L61.7823 43.6233L46.963 25.6731Z" fill="url(#paint0_linear_12_1689)"/>
</g>
<defs>
<filter id="filter0_i_12_1689" x="-6" y="0" width="80.5139" height="67" filterUnits="userSpaceOnUse" color-interpolation-filters="sRGB">
<feFlood flood-opacity="0" result="BackgroundImageFix"/>
<feBlend mode="normal" in="SourceGraphic" in2="BackgroundImageFix" result="shape"/>
<feColorMatrix in="SourceAlpha" type="matrix" values="0 0 0 0 0 0 0 0 0 0 0 0 0 0 0 0 0 0 127 0" result="hardAlpha"/>
<feOffset dx="-6"/>
<feGaussianBlur stdDeviation="7.5"/>
<feComposite in2="hardAlpha" operator="arithmetic" k2="-1" k3="1"/>
<feColorMatrix type="matrix" values="0 0 0 0 0 0 0 0 0 0 0 0 0 0 0 0 0 0 0.25 0"/>
<feBlend mode="normal" in2="shape" result="effect1_innerShadow_12_1689"/>
</filter>
<linearGradient id="paint0_linear_12_1689" x1="60.5988" y1="-9.21248" x2="-20.9685" y2="-3.37914" gradientUnits="userSpaceOnUse">
<stop stop-color="#5365D5"/>
<stop offset="1" stop-color="#A0AFFF"/>
</linearGradient>
</defs>
</svg>
