<svg width="172" height="82" viewBox="0 0 172 82" fill="none" xmlns="http://www.w3.org/2000/svg">
<path d="M40.5564 15.6503L38.8341 17.3448V7.46293H45.8756L48.3752 5.01871V1H33.4996L31 3.45921V21.3335L33.4996 23.7927H45.8756L48.3752 21.3335V9.15739H40.5564V15.6503Z" fill="white"/>
<path d="M67.488 3.44422L65.0036 1H50.1128V23.7927H57.9469V19.0392L59.6691 17.3448V23.7927H67.488V14.8406L64.9884 12.3964L67.488 9.93714V3.44422ZM59.6691 9.84717L57.9469 11.5416V7.46293H59.6691V9.84717Z" fill="white"/>
<path d="M77.0444 1H69.2255V23.7927H77.0444V1Z" fill="white"/>
<path d="M94.7397 1L92.2401 3.45921L89.7557 1H78.7971V23.8077H86.6312V10.8668L88.3535 9.17239V23.8077H96.1876V10.8668L97.9099 9.17239V23.8077H105.744V1H94.7397Z" fill="white"/>
<path d="M48.3752 29.5479L45.8909 27.1036H31V49.8964H38.8341V45.1429L40.5564 43.4484V49.8964H48.3752V40.9442L45.8756 38.5L48.3752 36.0408V29.5479ZM40.5564 35.9508L38.8341 37.6453V33.5666H40.5564V35.9508Z" fill="white"/>
<path d="M67.488 43.4184V49.8964H50.1128V27.1036H67.488V33.5666H59.6387L57.9164 35.261H65.7657V41.724H57.9164V43.4184H67.488Z" fill="white"/>
<path d="M71.7708 27.1036L69.2712 29.5629V49.8964H77.0901V41.739H78.8276V49.8964H86.6465V29.5629L84.1469 27.1036H71.7708ZM78.8276 35.9508L77.0901 37.6453V33.5816H78.8276V35.9508Z" fill="white"/>
<path d="M88.3992 27.1036V49.8964H96.2333V41.739H103.29L105.774 39.2798V29.5479L103.29 27.1036H88.3992ZM97.9556 35.276L96.2333 36.9705V33.5816H97.9556V35.276Z" fill="white"/>
<path d="M124.887 43.4184V49.8964H107.512V27.1036H124.887V33.5666H117.038L115.316 35.261H123.165V41.724H115.316V43.4184H124.887Z" fill="white"/>
<path d="M144 29.5479L141.516 27.1036H126.625V49.8964H134.459V45.1429L136.181 43.4484V49.8964H144V40.9442L141.5 38.5L144 36.0408V29.5479ZM136.181 35.9508L134.459 37.6453V33.5666H136.181V35.9508Z" fill="white"/>
<path d="M33.4996 53.2073L31 55.6665V73.5408L33.4996 76H45.8756L48.3752 73.5408V65.4584H40.5564V69.5371H38.8189V59.6552H40.5564V63.7489H48.3752V55.6665L45.8756 53.2073H33.4996Z" fill="white"/>
<path d="M52.5971 53.2073L50.1128 55.6515V73.5408L52.6124 76H64.9884L67.488 73.5408V55.6515L65.0036 53.2073H52.5971ZM59.6691 67.8576L57.9469 69.5521V59.6702H59.6691V67.8576Z" fill="white"/>
<path d="M86.6008 55.6515L84.1164 53.2073H69.2255V76H77.0596V71.2465L78.7819 69.5521V76H86.6008V67.0479L84.1012 64.6036L86.6008 62.1444V55.6515ZM78.7819 62.0545L77.0596 63.7489V59.6702H78.7819V62.0545Z" fill="white"/>
<path fill-rule="evenodd" clip-rule="evenodd" d="M104.879 68.5087C131.708 68.4742 153.355 68.8337 153.355 68.8337L154.094 73.7224L162.022 71.4302C162.464 73.528 159.779 80.5564 159.779 80.5564L162.986 82C167.587 75.1929 168.282 69.4477 168.282 69.4477L171.106 69.1714L171.454 63.5L169.431 62.512C165.622 0.609945 127.435 0 127.435 0C157.079 18.7637 153.329 55.8556 153.329 55.8556L161.883 58.6202L162.067 63.4503L104.879 62.5293V68.5087ZM30.222 61.3271V70.2085C17.5825 71.0039 8.15313 72.1482 4.91374 73.7777L0 61.5401L5.91683 54.9794C5.91683 54.9794 7.65088 61.0835 14.1372 61.068L30.222 61.3271Z" fill="#FF4E4E"/>
</svg>
